<?xml version="1.0" standalone="no"?>
<!DOCTYPE svg PUBLIC "-//W3C//DTD SVG 20010904//EN"
 "http://www.w3.org/TR/2001/REC-SVG-20010904/DTD/svg10.dtd">
<svg version="1.0" xmlns="http://www.w3.org/2000/svg"
 width="1008.000000pt" height="1008.000000pt" viewBox="0 0 1008.000000 1008.000000"
 preserveAspectRatio="xMidYMid meet">
<metadata>
Created by potrace 1.14, written by Peter Selinger 2001-2017
</metadata>
<g transform="translate(0.000000,1008.000000) scale(0.100000,-0.100000)"
fill="#000000" stroke="none">
<path d="M6060 10076 c-3 -2 -21 -6 -40 -9 -84 -13 -190 -54 -273 -104 -117
-72 -241 -212 -297 -337 -21 -47 -50 -134 -56 -166 -4 -27 -17 -155 -16 -165
1 -5 3 -32 6 -60 13 -147 59 -272 143 -386 58 -80 160 -179 182 -179 5 0 11
-4 13 -8 7 -20 139 -83 223 -107 146 -43 315 -39 460 10 59 20 138 55 145 64
3 3 25 19 50 35 52 32 200 182 200 201 0 7 4 15 9 17 5 2 25 35 44 75 105 208
109 466 9 673 -103 214 -285 366 -512 425 -59 16 -279 32 -290 21z"/>
<path d="M3828 9272 c-36 -22 -46 -70 -24 -116 9 -19 16 -37 16 -40 0 -3 12
-31 26 -63 35 -78 54 -125 94 -228 4 -11 12 -31 18 -45 31 -71 92 -238 92
-251 0 -8 4 -19 9 -25 8 -9 137 -380 146 -420 2 -10 15 -52 29 -91 14 -40 23
-73 21 -73 -2 0 2 -15 10 -33 8 -19 23 -67 34 -108 11 -41 30 -108 42 -149 21
-76 37 -139 45 -174 2 -10 8 -33 13 -50 6 -17 17 -60 25 -96 8 -36 24 -108 36
-160 12 -52 24 -104 26 -115 2 -11 6 -29 8 -40 26 -124 46 -226 50 -255 2 -19
7 -46 10 -60 4 -14 9 -41 11 -60 3 -19 9 -58 14 -85 5 -28 12 -75 16 -105 4
-30 8 -57 10 -60 2 -3 6 -34 10 -70 3 -36 8 -78 10 -95 2 -16 7 -55 10 -85 3
-30 7 -65 9 -78 3 -12 7 -61 11 -110 3 -48 7 -109 10 -137 24 -247 24 -775 0
-1070 -11 -128 -21 -223 -36 -325 -6 -41 -13 -97 -16 -125 -5 -47 -27 -100
-55 -136 -16 -19 -67 -47 -99 -52 -13 -3 -44 -10 -69 -17 -25 -7 -56 -14 -69
-17 -14 -2 -28 -6 -33 -9 -4 -3 -16 -7 -27 -9 -36 -7 -297 -84 -406 -120 -60
-20 -114 -38 -120 -39 -5 -2 -21 -7 -35 -13 -14 -5 -61 -22 -105 -38 -44 -15
-91 -32 -105 -38 -14 -5 -29 -11 -35 -13 -75 -19 -768 -340 -785 -364 -3 -3
-20 -13 -37 -21 -18 -8 -33 -17 -33 -21 0 -5 -5 -8 -11 -8 -19 0 -418 -254
-439 -280 -3 -3 -21 -17 -40 -30 -37 -26 -41 -29 -110 -85 -144 -118 -234
-200 -324 -294 -28 -29 -65 -67 -81 -85 -72 -73 -239 -287 -292 -372 -158
-253 -234 -408 -308 -629 -48 -143 -54 -189 -50 -385 3 -173 14 -249 41 -271
19 -16 26 -8 106 103 81 113 93 134 177 298 33 63 72 131 88 150 32 40 166
176 233 236 99 89 477 364 501 364 5 0 9 5 9 10 0 6 7 10 15 10 8 0 15 5 15
10 0 6 4 10 8 10 5 0 71 38 148 83 433 259 946 490 1334 601 52 15 102 30 110
33 8 3 20 7 25 8 6 2 30 8 55 15 25 7 54 14 65 16 11 1 43 8 70 14 28 6 59 14
70 16 11 3 31 7 45 9 14 2 41 7 60 11 19 3 51 8 70 9 19 2 35 4 35 5 0 3 52 8
117 12 32 2 58 5 58 8 0 7 281 4 365 -4 253 -24 459 -95 652 -223 71 -47 198
-171 254 -248 24 -33 46 -62 49 -65 8 -8 35 -59 65 -120 15 -30 31 -63 36 -73
12 -22 60 -147 64 -167 2 -8 10 -40 19 -70 16 -56 40 -166 50 -230 3 -19 8
-51 11 -70 3 -19 7 -60 10 -90 2 -30 7 -68 9 -85 3 -16 7 -52 11 -80 3 -27 7
-63 9 -80 3 -16 8 -52 12 -80 4 -27 8 -63 10 -80 7 -77 14 -126 18 -133 2 -4
7 -36 10 -72 4 -36 8 -76 10 -90 3 -14 7 -47 10 -75 3 -27 8 -61 11 -75 4 -23
11 -82 20 -175 2 -22 6 -49 9 -60 7 -27 20 -133 20 -167 1 -16 3 -28 6 -28 3
0 6 -21 8 -48 1 -26 4 -58 7 -71 2 -13 7 -45 11 -70 3 -25 7 -57 10 -71 4 -29
38 -60 66 -60 29 0 65 42 78 91 7 24 11 44 9 45 -2 0 1 7 8 15 6 8 14 31 18
52 4 20 10 37 14 37 4 0 7 8 8 18 1 10 15 58 31 107 16 50 62 194 102 320 39
127 76 239 80 250 5 11 36 108 70 215 34 107 67 213 75 235 12 38 75 258 79
280 1 6 10 35 19 65 9 30 23 80 31 110 47 174 68 248 77 275 15 48 60 208 65
234 3 13 9 32 15 43 5 10 8 18 6 18 -3 0 6 37 20 83 13 45 26 93 29 107 2 14
9 36 14 50 5 14 46 156 90 315 44 160 83 297 87 305 3 8 7 24 9 35 2 11 17 67
34 125 17 58 33 112 35 120 2 8 15 57 30 109 15 51 28 98 29 105 2 6 11 38 21
71 10 33 19 65 20 70 0 6 7 30 15 55 7 25 14 50 16 55 1 6 14 53 29 105 15 52
28 103 30 113 2 9 7 22 10 28 4 5 8 20 10 32 5 32 36 140 43 152 4 6 7 15 7
20 1 24 18 81 27 93 6 6 8 12 5 12 -3 0 6 39 21 88 36 122 39 208 12 286 -12
33 -27 75 -35 91 -12 27 -28 72 -30 85 0 3 -11 28 -24 55 -12 28 -24 57 -26
65 -7 27 -73 172 -84 183 -6 6 -11 17 -11 23 0 17 -124 259 -182 354 -64 107
-112 184 -118 190 -3 3 -25 34 -50 70 -24 36 -51 73 -60 83 -35 43 -52 64 -78
96 -32 40 -246 257 -282 286 -14 11 -46 37 -72 58 -45 36 -72 45 -82 29 -3 -5
25 -70 63 -145 37 -76 67 -137 65 -137 -1 0 11 -35 28 -77 33 -87 48 -130 74
-218 10 -33 18 -62 19 -65 1 -3 5 -23 10 -45 5 -22 10 -42 10 -45 3 -10 18
-85 21 -105 2 -11 6 -31 9 -45 9 -44 25 -173 31 -250 7 -92 11 -392 6 -403 -2
-5 -5 -34 -7 -65 -3 -60 -13 -159 -21 -202 -3 -14 -7 -41 -9 -60 -3 -19 -8
-46 -11 -60 -4 -14 -8 -34 -10 -45 -5 -38 -12 -70 -34 -155 -12 -47 -23 -92
-25 -101 -2 -9 -11 -39 -20 -65 -9 -27 -18 -56 -20 -64 -2 -8 -4 -15 -5 -15
-1 0 -3 -10 -6 -23 -12 -66 -69 -126 -114 -118 -99 15 -212 167 -370 496 -39
80 -77 158 -85 173 -8 16 -15 34 -15 40 0 7 -9 29 -20 50 -11 20 -20 39 -20
42 -1 4 -10 28 -35 90 -5 11 -9 22 -10 25 -1 3 -5 14 -10 25 -4 11 -17 43 -28
70 -10 28 -24 61 -30 75 -5 14 -11 32 -13 40 -2 8 -7 23 -13 35 -6 11 -29 72
-51 135 -23 63 -44 122 -47 130 -4 8 -7 18 -8 23 -2 4 -3 8 -5 10 -1 1 -3 9
-5 17 -2 8 -29 87 -60 175 -31 88 -72 209 -91 268 -18 59 -39 118 -46 130 -6
12 -10 22 -9 22 4 0 -9 45 -59 200 -44 137 -111 353 -115 370 -1 6 -5 17 -8
25 -4 8 -20 65 -37 125 -18 61 -35 119 -40 130 -4 11 -14 40 -21 65 -7 25 -16
50 -19 55 -4 6 -10 23 -14 40 -4 16 -16 48 -27 72 -10 23 -19 45 -19 49 0 9
-46 127 -65 169 -38 82 -85 187 -85 192 0 2 -32 68 -70 145 -61 119 -91 176
-183 342 -7 11 -14 23 -17 26 -3 3 -25 39 -50 80 -24 41 -48 79 -52 85 -5 5
-28 39 -51 75 -22 36 -43 67 -47 70 -3 3 -16 21 -30 40 -13 19 -28 40 -32 45
-196 253 -257 323 -409 475 -238 237 -277 263 -341 222z"/>
<path d="M8097 3474 c-1 -1 -31 -4 -67 -8 -36 -3 -83 -10 -105 -16 -22 -6 -49
-12 -60 -14 -75 -15 -216 -79 -303 -138 -61 -41 -149 -122 -187 -170 -33 -42
-70 -94 -71 -98 0 -3 -17 -39 -37 -80 -37 -78 -65 -171 -74 -249 -8 -66 -8
-65 -16 -78 -5 -7 -5 -13 0 -13 4 0 7 -54 7 -120 -1 -66 2 -123 7 -126 5 -3 7
-10 3 -15 -5 -9 19 -123 33 -159 4 -8 7 -17 7 -20 1 -3 4 -9 7 -15 3 -5 11
-29 19 -52 7 -24 17 -43 22 -43 4 0 8 -5 8 -12 0 -25 96 -151 165 -216 109
-103 283 -198 416 -228 11 -2 28 -6 39 -9 144 -36 340 -36 500 0 36 9 79 20
95 26 56 21 180 73 190 82 6 4 33 22 60 39 99 63 285 275 285 326 0 6 4 12 8
14 12 5 70 188 79 249 10 65 10 307 1 369 -33 226 -142 417 -318 560 -98 79
-233 144 -378 181 -47 12 -85 20 -122 25 -45 6 -208 12 -213 8z"/>
</g>
</svg>
