<?xml version="1.0" encoding="UTF-8"?><svg id="Calque_2" xmlns="http://www.w3.org/2000/svg" viewBox="0 0 51 62.69"><defs><style>.cls-1{fill:#fff;}.cls-2{fill:#da1e37;}</style></defs><g id="Calque_1-2"><g><path class="cls-1" d="M.45,56.93c-.26,.14-.35-.38-.4-.83l-.03-.93c-.05-.49,0-1.28,.13-1.76,3.12-10.51,15.72-14.67,21.85-16.17,.41-.1,.72-.44,.79-.85,2.11-12.71-2.91-25.92-5.02-30.73-.22-.51,.39-.98,.82-.63,6.82,5.66,9.15,14.81,9.15,14.81,6.98,23.06,8.14,16.47,8.14,16.47,2.2-6.67,.45-11.9-1.08-14.61-.07-.13,.08-.26,.2-.18,4.44,3.18,6.44,9.34,6.99,10.79v.64s-5.91,21-5.91,21l-2.69,8.4c-.14,.44-.75,.49-.84-.08l-1.21-9.24c-1.47-18.2-27.26-3.15-29.16,1.12-.7,1.58-1.73,2.78-1.73,2.78Z"/><path class="cls-1" d="M51,47.01c.12,7.91-12.31,7.91-12.19,0-.12-7.91,12.31-7.91,12.19,0Z"/><circle class="cls-2" cx="32.45" cy="4.84" r="4.84"/></g></g></svg>